# xmcd CD database file
#
# Track frame offsets:
#	150
#	17738
#	30509
#	45538
#	61709
#	82863
#	91495
#	101210
#	117639
#	134619
#	148472
#	170504
#	181509
#	191608
#	203544
#	221065
#
# Disc length: 3158 seconds
#
# Revision: 0
# Processed by: cddbd v1.5.1PL0 Copyright (c) Steve Scherf et al.
# Submitted via: CDex 1.51
#
DISCID=e00c5410
DTITLE=Miss Behavin - Dirty Little Elves
DYEAR=2005
DGENRE=Country
TTITLE0=Here Comes Santa Claus
TTITLE1=Glühwein
TTITLE2=Home For Christmas
TTITLE3=Winter Wonderland
TTITLE4=Rudolph The Red Nosed Rendeer
TTITLE5=Away In A Manger
TTITLE6=Frosty The Snowman
TTITLE7=Mistletoe
TTITLE8=Jolly Old St. Nicholas
TTITLE9=Jingle Bells
TTITLE10=Dirty Little Elf
TTITLE11=Jingle Bell Rock
TTITLE12=Up On The Housetop
TTITLE13=Zat You Santa Claus
TTITLE14=Silent Night
TTITLE15=Joy To The World
EXTD=YEAR: 2005
EXTT0=
EXTT1=
EXTT2=
EXTT3=
EXTT4=
EXTT5=
EXTT6=
EXTT7=
EXTT8=
EXTT9=
EXTT10=
EXTT11=
EXTT12=
EXTT13=
EXTT14=
EXTT15=
PLAYORDER=
